HIERARCHY
ROOT Hips
{
	OFFSET 0.00000 0.00000 0.00000
	CHANNELS 6 Xposition Yposition Zposition Zrotation Yrotation Xrotation 
	JOINT LHipJoint
	{
		OFFSET 0 0 0
		CHANNELS 3 Zrotation Yrotation Xrotation
		JOINT LeftUpLeg
		{
			OFFSET 1.59801 -1.77853 0.57028
			CHANNELS 3 Zrotation Yrotation Xrotation
			JOINT LeftLeg
			{
				OFFSET 2.39439 -6.57854 0.00000
				CHANNELS 3 Zrotation Yrotation Xrotation
				JOINT LeftFoot
				{
					OFFSET 2.69334 -7.39989 0.00000
					CHANNELS 3 Zrotation Yrotation Xrotation
					JOINT LeftToeBase
					{
						OFFSET 0.09553 -0.26245 1.73747
						CHANNELS 3 Zrotation Yrotation Xrotation
						End Site
						{
							OFFSET 0.00000 -0.00000 0.89391
						}
					}
				}
			}
		}
	}
	JOINT RHipJoint
	{
		OFFSET 0 0 0
		CHANNELS 3 Zrotation Yrotation Xrotation
		JOINT RightUpLeg
		{
			OFFSET -1.54704 -1.77852 0.57028
			CHANNELS 3 Zrotation Yrotation Xrotation
			JOINT RightLeg
			{
				OFFSET -2.40286 -6.60180 0.00000
				CHANNELS 3 Zrotation Yrotation Xrotation
				JOINT RightFoot
				{
					OFFSET -2.63873 -7.24984 0.00000
					CHANNELS 3 Zrotation Yrotation Xrotation
					JOINT RightToeBase
					{
						OFFSET -0.15631 -0.42945 1.84436
						CHANNELS 3 Zrotation Yrotation Xrotation
						End Site
						{
							OFFSET -0.00000 -0.00000 0.95734
						}
					}
				}
			}
		}
	}
	JOINT LowerBack
	{
		OFFSET 0 0 0
		CHANNELS 3 Zrotation Yrotation Xrotation
		JOINT Spine
		{
			OFFSET -0.00436 1.89866 -0.04018
			CHANNELS 3 Zrotation Yrotation Xrotation
			JOINT Spine1
			{
				OFFSET 0.02031 1.88273 0.09634
				CHANNELS 3 Zrotation Yrotation Xrotation
				JOINT Neck
				{
					OFFSET 0 0 0
					CHANNELS 3 Zrotation Yrotation Xrotation
					JOINT Neck1
					{
						OFFSET -0.13105 1.89371 0.23083
						CHANNELS 3 Zrotation Yrotation Xrotation
						JOINT Head
						{
							OFFSET 0.17062 1.83990 -0.54062
							CHANNELS 3 Zrotation Yrotation Xrotation
							End Site
							{
								OFFSET 0.04576 1.94782 -0.21839
							}
						}
					}
				}
				JOINT LeftShoulder
				{
					OFFSET 0 0 0
					CHANNELS 3 Zrotation Yrotation Xrotation
					JOINT LeftArm
					{
						OFFSET 3.12424 1.09204 0.22226
						CHANNELS 3 Zrotation Yrotation Xrotation
						JOINT LeftForeArm
						{
							OFFSET 5.29277 -0.00000 0.00000
							CHANNELS 3 Zrotation Yrotation Xrotation
							JOINT LeftHand
							{
								OFFSET 2.85226 -0.00000 0.00000
								CHANNELS 3 Zrotation Yrotation Xrotation
								JOINT LeftFingerBase
								{
									OFFSET 0 0 0
									CHANNELS 3 Zrotation Yrotation Xrotation
									JOINT LeftHandIndex1
									{
										OFFSET 0.60210 -0.00000 0.00000
										CHANNELS 3 Zrotation Yrotation Xrotation
										End Site
										{
											OFFSET 0.48543 -0.00000 0.00000
										}
									}
								}
								JOINT LThumb
								{
									OFFSET 0 0 0
									CHANNELS 3 Zrotation Yrotation Xrotation
									End Site
									{
										OFFSET 0.49284 -0.00000 0.49284
									}
								}
							}
						}
					}
				}
				JOINT RightShoulder
				{
					OFFSET 0 0 0
					CHANNELS 3 Zrotation Yrotation Xrotation
					JOINT RightArm
					{
						OFFSET -2.91709 1.01504 0.30199
						CHANNELS 3 Zrotation Yrotation Xrotation
						JOINT RightForeArm
						{
							OFFSET -5.13304 -0.00000 0.00000
							CHANNELS 3 Zrotation Yrotation Xrotation
							JOINT RightHand
							{
								OFFSET -2.74305 -0.00000 0.00000
								CHANNELS 3 Zrotation Yrotation Xrotation
								JOINT RightFingerBase
								{
									OFFSET 0 0 0
									CHANNELS 3 Zrotation Yrotation Xrotation
									JOINT RightHandIndex1
									{
										OFFSET -0.76798 -0.00000 0.00000
										CHANNELS 3 Zrotation Yrotation Xrotation
										End Site
										{
											OFFSET -0.61916 -0.00000 0.00000
										}
									}
								}
								JOINT RThumb
								{
									OFFSET 0 0 0
									CHANNELS 3 Zrotation Yrotation Xrotation
									End Site
									{
										OFFSET -0.62862 -0.00000 0.62862
									}
								}
							}
						}
					}
				}
			}
		}
	}
}
MOTION
Frames: 14
Frame Time: .0083333
-0.036 17.3978 0.134 0 0 0 0 0 0 -21 0 0 0 0 0 0 0 0 0 0 0 0 0 0 21 0 0 0 0 0 0 0 0 0 0 0 0 0 0 0 0 0 0 0 0 0 0 -16 0 0 21 0 0 11 0 0 0 -8 0 0 0 0 0 0 0 0 0 0 0 0 0 0 0 0 0 0 0 0 8 0 0 0 0 0 0 0 0 0 0 0 0 0 0 0 0 0
-0.0360 17.3978 0.1340 0.6677 1.9011 1.2536 0.0000 0.0000 0.0000 -21.7492 -17.2832 10.0673 0.2371 3.1336 8.6508 0.3508 7.0627 -15.9543 1.2843 -7.1814 -20.2538 0.0000 0.0000 0.0000 19.5100 6.7739 12.1795 0.0000 0.0000 -0.0000 0.1098 -9.7227 -11.7978 -0.5986 4.9529 -13.7742 -3.5300 0.2479 -2.5362 0.9359 0.3888 -2.7461 2.9466 0.2652 -1.4305 -17.1990 -12.0454 -10.3919 14.7780 -18.8342 30.1608 5.6146 -8.5606 15.5887 0.0000 -0.0000 0.0000 -92.6237 1.8622 25.3855 7.7102 -13.0821 -0.8854 -0.0000 -0.0000 27.0689 8.2400 23.2496 3.2717 -7.1250 0.0000 -0.0000 -21.2567 52.1761 -3.8998 0.0000 -0.0000 0.0000 0.0000 -0.0000 -0.0000 0.0000 -0.0000 -0.0000 0.0000 0.0000 0.0000 0.0000 0.0000 0.0000 0.0000 0.0000 0.0000 0.0000 -0.0000 0.0000
-0.0373 17.4000 0.1339 0.6583 1.9140 1.3393 0.0000 0.0000 0.0000 -21.6869 -17.3279 9.9884 0.2361 3.1273 8.6333 0.3666 6.9274 -16.0342 1.1282 -6.7465 -18.9664 0.0000 0.0000 0.0000 19.5208 6.7909 12.0901 0.0000 0.0000 -0.0000 0.1052 -9.6940 -11.8462 -0.5773 4.8657 -13.5258 -3.5561 0.2330 -2.5905 0.9611 0.3710 -2.7881 2.9872 0.2579 -1.4425 -17.2547 -12.0296 -10.3707 14.8248 -18.8151 30.1480 5.6494 -8.5554 15.5879 0.0000 0.0000 0.0000 -92.5521 1.8940 25.2572 7.7392 -13.1293 -0.8920 -0.0000 -0.0000 26.9000 8.6894 22.5648 3.3563 -7.1250 0.0000 -0.0000 -20.4744 51.6113 -3.4548 0.0000 0.0000 0.0000 0.0000 -0.0000 -0.0000 0.0000 -0.0000 -0.0000 0.0000 0.0000 0.0000 0.0000 0.0000 0.0000 0.0000 0.0000 0.0000 0.0000 -0.0000 0.0000
-0.0369 17.4001 0.1341 0.6984 1.9199 1.3418 0.0000 0.0000 0.0000 -21.7349 -17.3473 9.9551 0.2394 3.1491 8.6942 0.3603 6.9315 -15.9563 1.0843 -6.6181 -18.5888 0.0000 0.0000 0.0000 19.4699 6.7865 12.0850 0.0000 0.0000 -0.0000 0.0986 -9.6376 -11.8891 -0.5346 4.6850 -13.0122 -3.6011 0.2200 -2.5913 0.9631 0.3542 -2.7882 3.0144 0.2504 -1.4413 -17.3100 -12.0057 -10.3579 14.8911 -18.7818 30.0967 5.6938 -8.5420 15.5702 -0.0000 -0.0000 0.0000 -92.4792 1.8273 25.2925 7.7093 -13.0805 -0.8852 -0.0000 -0.0000 26.6675 8.9809 22.3427 3.4382 -7.1250 0.0000 -0.0000 -20.0864 51.4508 -3.3036 -0.0000 -0.0000 0.0000 0.0000 -0.0000 -0.0000 0.0000 -0.0000 -0.0000 0.0000 0.0000 0.0000 0.0000 0.0000 0.0000 0.0000 0.0000 0.0000 0.0000 -0.0000 0.0000
-0.0357 17.3991 0.1350 0.6973 1.8962 1.3621 0.0000 0.0000 0.0000 -21.7386 -17.3419 9.8999 0.2432 3.1734 8.7620 0.3639 6.9223 -15.9938 1.0859 -6.6229 -18.6028 0.0000 0.0000 0.0000 19.4626 6.8167 12.0722 0.0000 -0.0000 0.0000 0.0938 -9.5958 -11.9201 -0.5269 4.6519 -12.9184 -3.5746 0.2334 -2.6128 0.9575 0.3722 -2.8062 2.9940 0.2593 -1.4489 -17.3054 -12.0122 -10.3485 14.8728 -18.7829 30.0719 5.6837 -8.5445 15.5528 -0.0000 0.0000 0.0000 -92.4183 1.7801 25.1300 7.6749 -13.0246 -0.8774 -0.0000 -0.0000 26.8003 9.2119 22.2234 3.5100 -7.1250 0.0000 -0.0000 -19.8083 51.3763 -3.2175 -0.0000 0.0000 0.0000 0.0000 -0.0000 -0.0000 0.0000 -0.0000 -0.0000 0.0000 0.0000 0.0000 0.0000 0.0000 0.0000 0.0000 0.0000 0.0000 0.0000 -0.0000 0.0000
-0.0238 17.4151 0.1457 0.6114 2.4442 2.8256 0.0000 0.0000 0.0000 -21.1822 -18.4734 8.4383 0.2465 3.1947 8.8212 0.3396 7.0500 -15.7954 1.1750 -6.8801 -19.3607 0.0000 0.0000 0.0000 19.3680 6.8060 10.4580 0.0000 0.0000 -0.0000 0.0946 -9.5755 -11.8693 -0.5185 4.6149 -12.8133 -3.2560 0.0098 -4.1027 0.9201 0.1139 -3.2290 2.7759 0.1228 -1.0293 -17.3006 -12.0066 -10.2974 14.8613 -18.7731 30.0391 5.6811 -8.5443 15.5204 -0.0000 -0.0000 0.0000 -92.3605 1.7676 24.7280 7.6579 -12.9968 -0.8736 -0.0000 -0.0000 27.2591 9.2344 22.2560 3.5236 -7.1250 0.0000 -0.0000 -19.8032 51.4107 -3.2338 -0.0000 -0.0000 0.0000 0.0000 -0.0000 -0.0000 0.0000 -0.0000 -0.0000 0.0000 0.0000 0.0000 0.0000 0.0000 0.0000 0.0000 0.0000 0.0000 0.0000 -0.0000 0.0000
-0.0226 17.4149 0.1448 0.6470 2.4452 2.8663 0.0000 0.0000 0.0000 -21.2216 -18.5110 8.3436 0.2512 3.2252 8.9063 0.3563 7.0400 -16.0052 1.1829 -6.9026 -19.4271 0.0000 0.0000 0.0000 19.3179 6.8192 10.4139 0.0000 0.0000 -0.0000 0.0930 -9.5717 -11.8970 -0.5592 4.7900 -13.3107 -3.2341 0.0104 -4.0867 0.8757 0.1129 -3.2754 2.7177 0.1232 -1.0857 -17.2687 -12.0084 -10.2915 14.8565 -18.7825 30.0339 5.6717 -8.5459 15.5137 -0.0000 -0.0000 0.0000 -92.2732 1.7715 24.7701 7.6149 -12.9268 -0.8639 -0.0000 -0.0000 27.2398 9.2555 22.4433 3.5599 -7.1250 0.0000 -0.0000 -19.8760 51.5906 -3.3365 -0.0000 -0.0000 0.0000 89.6969 -3.3459 16.0428 -11.0793 18.4097 -1.8009 0.0000 0.0000 29.9116 -11.0931 13.1895 -2.5615 7.1250 -0.0000 -0.0000 11.1728 -16.7067 7.6371
-0.0219 17.4157 0.1456 0.6510 2.4372 2.8745 0.0000 0.0000 0.0000 -21.2276 -18.5155 8.3082 0.2549 3.2482 8.9705 0.4009 6.8243 -16.3784 1.0317 -6.4608 -18.1274 0.0000 0.0000 0.0000 19.3063 6.8261 10.4185 0.0000 -0.0000 0.0000 0.0881 -9.5340 -11.9365 -0.5663 4.8196 -13.3946 -3.1965 0.0050 -4.1004 0.8419 0.1049 -3.2715 2.6615 0.1179 -1.0731 -17.2196 -12.0106 -10.3542 14.8588 -18.7886 30.0300 5.6599 -8.5394 15.5214 -0.0000 0.0000 0.0000 -92.1676 1.7138 24.7869 7.5407 -12.8057 -0.8474 -0.0000 -0.0000 27.1774 9.1868 22.5950 3.5557 -7.1250 0.0000 -0.0000 -20.0173 51.7221 -3.4281 -0.0000 0.0000 0.0000 89.7638 -3.2990 16.0074 -11.0432 18.3544 -1.7895 0.0000 0.0000 30.1166 -11.2333 13.1852 -2.5939 7.1250 -0.0000 -0.0000 11.0768 -16.7022 7.5701
-0.0206 17.4166 0.1469 0.6517 2.4002 2.8829 0.0000 0.0000 0.0000 -21.2319 -18.4781 8.3026 0.2545 3.2457 8.9635 0.4135 6.7296 -16.4511 1.0053 -6.3800 -17.8912 0.0000 0.0000 0.0000 19.2971 6.8631 10.4258 0.0000 0.0000 -0.0000 0.0877 -9.5131 -11.9099 -0.5261 4.6484 -12.9085 -3.1939 -0.0043 -4.1158 0.8518 0.0928 -3.2803 2.6698 0.1120 -1.0727 -17.2348 -12.0002 -10.3897 14.8382 -18.7554 30.0278 5.6588 -8.5273 15.5197 -0.0000 0.0000 0.0000 -92.1259 1.6710 24.7673 7.4754 -12.6990 -0.8330 -0.0000 -0.0000 27.1976 9.5140 22.5765 3.6815 -7.1250 0.0000 -0.0000 -19.6964 51.7589 -3.3876 -0.0000 0.0000 0.0000 89.7273 -3.2797 16.1851 -10.9921 18.2761 -1.7734 0.0000 0.0000 30.1240 -11.3778 13.0914 -2.6097 7.1250 -0.0000 -0.0000 10.9804 -16.7869 7.4810
-0.0200 17.4161 0.1482 0.6533 2.3510 2.9238 0.0000 0.0000 0.0000 -21.2272 -18.4558 8.2201 0.2577 3.2658 9.0196 0.3840 6.9568 -16.2840 1.2030 -6.9588 -19.5934 0.0000 0.0000 0.0000 19.2888 6.9254 10.3965 0.0000 0.0000 -0.0000 0.0915 -9.5425 -11.8800 -0.5318 4.6730 -12.9781 -3.1911 0.0061 -4.1502 0.8532 0.1073 -3.3238 2.6702 0.1203 -1.0994 -17.2564 -11.9828 -10.3883 14.8313 -18.7248 30.0463 5.6675 -8.5176 15.5231 -0.0000 -0.0000 0.0000 -92.0464 1.7310 24.7980 7.4799 -12.7063 -0.8340 -0.0000 -0.0000 27.2265 10.1721 22.3354 3.9008 -7.1250 0.0000 -0.0000 -18.9500 51.6399 -3.1946 -0.0000 -0.0000 0.0000 89.7293 -3.2911 16.1804 -10.9326 18.1848 -1.7548 0.0000 0.0000 30.2327 -11.4231 13.0780 -2.6178 7.1250 -0.0000 -0.0000 10.9498 -16.7975 7.4568
-0.0194 17.4163 0.1492 0.6114 2.3391 2.9750 0.0000 0.0000 0.0000 -21.1745 -18.4869 8.0942 0.2654 3.3139 9.1540 0.3865 7.0006 -16.3560 1.2237 -7.0161 -19.7631 0.0000 0.0000 0.0000 19.3249 6.9637 10.3300 0.0000 0.0000 -0.0000 0.0847 -9.4986 -11.9468 -0.5822 4.8859 -13.5835 -3.1179 0.0026 -4.1980 0.8527 0.1017 -3.3562 2.6284 0.1168 -1.1053 -17.3017 -11.9841 -10.4394 14.8449 -18.7219 30.0879 5.6808 -8.5171 15.5624 0.0000 0.0000 0.0000 -91.9600 1.7703 24.8161 7.4939 -12.7292 -0.8371 -0.0000 -0.0000 27.2390 10.5571 22.2036 4.0286 -7.1250 0.0000 -0.0000 -18.5187 51.5783 -3.0890 0.0000 0.0000 0.0000 89.7410 -3.2973 16.2372 -10.9100 18.1502 -1.7478 0.0000 0.0000 30.1061 -11.0394 12.8934 -2.4927 7.1250 -0.0000 -0.0000 11.2180 -17.0051 7.5948
-0.0185 17.4168 0.1500 0.5343 2.3255 3.0122 0.0000 0.0000 0.0000 -21.0900 -18.5124 7.9729 0.2741 3.3678 9.3046 0.4142 6.8712 -16.5860 1.1437 -6.7910 -19.0976 0.0000 0.0000 0.0000 19.3972 7.0092 10.2555 0.0000 -0.0000 0.0000 0.0757 -9.4330 -12.0244 -0.6445 5.1357 -14.2959 -3.0196 0.0082 -4.2303 0.8648 0.1071 -3.3794 2.5859 0.1182 -1.1111 -17.3137 -11.9987 -10.4979 14.8338 -18.7384 30.1368 5.6733 -8.5229 15.6033 0.0000 -0.0000 0.0000 -91.8713 1.7499 24.8551 7.4630 -12.6787 -0.8303 -0.0000 -0.0000 27.3387 10.5944 22.1370 4.0317 -7.1250 0.0000 -0.0000 -18.4512 51.5211 -3.0506 0.0000 -0.0000 0.0000 89.7637 -3.3423 16.4615 -10.9393 18.1952 -1.7569 0.0000 0.0000 29.5899 -10.4282 12.4764 -2.2769 7.1250 -0.0000 -0.0000 11.6517 -17.4555 7.7834
-0.0176 17.4158 0.1507 0.3755 2.3088 3.0317 0.0000 0.0000 0.0000 -20.9219 -18.5304 7.8502 0.2852 3.4346 9.4912 0.4070 6.9000 -16.5223 1.2250 -7.0199 -19.7742 0.0000 0.0000 0.0000 19.5695 7.0504 10.2124 0.0000 0.0000 -0.0000 0.0744 -9.4352 -12.0544 -0.6495 5.1552 -14.3516 -2.8191 0.0289 -4.2625 0.8919 0.1297 -3.3832 2.5018 0.1261 -1.0973 -17.2714 -12.0194 -10.5774 14.7773 -18.7528 30.1684 5.6352 -8.5250 15.6260 -0.0000 0.0000 0.0000 -91.7785 1.7298 24.9221 7.4278 -12.6211 -0.8226 -0.0000 -0.0000 27.2277 10.4665 22.2297 3.9978 -7.1250 0.0000 -0.0000 -18.6179 51.5882 -3.1111 -0.0000 0.0000 0.0000 89.7928 -3.3637 16.5420 -10.9819 18.2604 -1.7702 0.0000 0.0000 29.3891 -10.1414 12.3503 -2.1910 7.1250 -0.0000 -0.0000 11.8538 -17.5963 7.8870
-0.0180 17.4155 0.1504 0.3001 2.2910 3.0731 0.0000 0.0000 0.0000 -20.8241 -18.5564 7.7146 0.2941 3.4873 9.6385 0.3868 7.0302 -16.3862 1.3286 -7.2994 -20.6053 0.0000 0.0000 0.0000 19.6519 7.0874 10.1712 0.0000 -0.0000 0.0000 0.0765 -9.4564 -12.0462 -0.6356 5.1010 -14.1968 -2.7529 0.0336 -4.2832 0.9181 0.1345 -3.4000 2.4918 0.1279 -1.1032 -17.2397 -12.0434 -10.6426 14.7128 -18.7610 30.1564 5.5951 -8.5277 15.6229 0.0000 -0.0000 0.0000 -91.7518 1.6609 24.9568 7.2967 -12.4066 -0.7942 -0.0000 -0.0000 26.8502 10.6055 22.2069 4.0481 -7.1250 0.0000 -0.0000 -18.4741 51.5896 -3.0863 0.0000 -0.0000 0.0000 89.7957 -3.3566 16.5977 -10.9932 18.2779 -1.7738 0.0000 0.0000 29.4094 -10.2228 12.3841 -2.2149 7.1250 -0.0000 -0.0000 11.7965 -17.5584 7.8571
